<svg width="202" height="46" viewBox="0 0 202 46" fill="none" xmlns="http://www.w3.org/2000/svg">
<path d="M7.312 18.408C7.888 35.496 16.048 39.336 22.288 39.336C28.432 39.336 32.56 36.552 37.168 29.256L38.704 29.928C34.672 40.296 27.472 45.96 18.352 45.96C7.312 45.96 0.4 37.704 0.4 24.456C0.4 10.152 8.848 0.839999 20.464 0.839999C30.352 0.839999 35.44 6.792 36.88 18.408H7.312ZM7.504 15.336H27.088C25.84 6.984 23.536 4.296 17.68 4.296C11.824 4.296 8.56 7.848 7.504 15.336ZM40.9668 6.792V5.16C46.2468 3.72 49.5108 2.664 54.4068 0.839999L55.0788 1.032V8.232C63.0468 2.184 65.7348 0.839999 69.9588 0.839999C75.1428 0.839999 78.4068 3.432 80.1348 8.904C85.3188 3.336 90.2148 0.839999 95.7828 0.839999C103.175 0.839999 106.919 6.6 106.919 17.928V37.704C106.919 41.448 108.167 43.176 111.047 43.368L113.543 43.56V45H92.5188V43.56C98.0868 42.888 98.8548 42.12 98.8548 36.648V16.392C98.8548 8.424 97.1268 5.832 91.6548 5.832C87.2388 5.832 84.0708 7.56 81.1908 11.688V35.88C81.1908 41.832 82.6308 43.464 88.1028 43.56V45H66.5988V43.56C72.0708 43.176 73.1268 42.12 73.1268 36.744V15.912C73.1268 9.192 71.0148 5.832 66.7908 5.832C64.0068 5.832 58.4388 7.08 55.4628 11.496V38.568C55.4628 42.312 56.9028 43.368 61.9908 43.56V45H40.6788V43.56C46.0547 43.464 47.3988 42.024 47.3988 36.84V12.552C47.3988 7.944 46.5348 6.408 44.0388 6.408C42.9828 6.408 42.2148 6.504 40.9668 6.792ZM116.463 35.688C116.463 25.32 128.559 21.768 140.463 16.968V11.112C140.463 5.928 137.871 3.144 133.167 3.144C129.327 3.144 126.255 5.256 126.255 7.848C126.255 9.192 126.734 10.824 126.734 11.688C126.734 13.8 124.719 15.72 122.415 15.72C120.207 15.72 118.287 13.8 118.287 11.592C118.287 5.544 125.391 0.839999 134.415 0.839999C145.551 0.839999 148.239 6.6 148.239 16.2V34.92C148.239 39.144 148.911 40.488 151.119 40.488C152.559 40.488 153.711 40.008 155.343 38.664V41.16C151.983 44.808 149.967 45.96 146.703 45.96C142.767 45.96 141.039 43.944 140.559 38.952C134.703 43.944 130.767 45.96 126.543 45.96C120.687 45.96 116.463 41.736 116.463 35.688ZM140.463 33.192V19.272C128.847 23.496 124.911 26.952 124.911 32.616C124.911 38.376 128.559 40.392 130.959 40.392C132.975 40.392 135.663 39.528 137.967 38.184C139.983 37.032 140.463 36.168 140.463 33.192ZM156.741 6.792V5.16C162.021 3.624 165.285 2.568 169.989 0.839999L170.661 1.032V8.616C177.189 2.472 180.165 0.839999 184.581 0.839999C191.685 0.839999 195.909 6.216 195.909 15.24V37.224C195.909 41.928 197.061 43.08 201.765 43.56V45H181.797V43.56C186.597 43.176 187.845 41.544 187.845 35.496V15.432C187.845 9.096 185.541 6.12 180.837 6.12C177.669 6.12 175.557 7.272 170.949 11.592V38.568C170.949 42.024 172.389 43.176 177.285 43.56V45H156.933V43.56C161.829 43.176 162.885 41.832 162.885 36.36V12.552C162.885 7.848 162.021 6.408 159.333 6.408C158.277 6.408 157.317 6.504 156.741 6.792Z" fill="black"/>
</svg>
