<svg width="119" height="70" viewBox="0 0 119 70" fill="none" xmlns="http://www.w3.org/2000/svg">
<path d="M16.4091 50V38.3636H20.3409C21.2538 38.3636 22 38.5284 22.5795 38.858C23.1629 39.1837 23.5947 39.625 23.875 40.1818C24.1553 40.7386 24.2955 41.3598 24.2955 42.0455C24.2955 42.7311 24.1553 43.3542 23.875 43.9148C23.5985 44.4754 23.1705 44.9223 22.5909 45.2557C22.0114 45.5852 21.2689 45.75 20.3636 45.75H17.5455V44.5H20.3182C20.9432 44.5 21.4451 44.392 21.8239 44.1761C22.2027 43.9602 22.4773 43.6686 22.6477 43.3011C22.822 42.9299 22.9091 42.5114 22.9091 42.0455C22.9091 41.5795 22.822 41.1629 22.6477 40.7955C22.4773 40.428 22.2008 40.1402 21.8182 39.9318C21.4356 39.7197 20.928 39.6136 20.2955 39.6136H17.8182V50H16.4091ZM29.9489 50.1818C29.108 50.1818 28.3826 49.9962 27.7727 49.625C27.1667 49.25 26.6989 48.7273 26.3693 48.0568C26.0436 47.3826 25.8807 46.5985 25.8807 45.7045C25.8807 44.8106 26.0436 44.0227 26.3693 43.3409C26.6989 42.6553 27.1572 42.1212 27.7443 41.7386C28.3352 41.3523 29.0246 41.1591 29.8125 41.1591C30.267 41.1591 30.7159 41.2348 31.1591 41.3864C31.6023 41.5379 32.0057 41.7841 32.3693 42.125C32.733 42.4621 33.0227 42.9091 33.2386 43.4659C33.4545 44.0227 33.5625 44.7083 33.5625 45.5227V46.0909H26.8352V44.9318H32.1989C32.1989 44.4394 32.1004 44 31.9034 43.6136C31.7102 43.2273 31.4337 42.9223 31.0739 42.6989C30.7178 42.4754 30.2973 42.3636 29.8125 42.3636C29.2784 42.3636 28.8163 42.4962 28.4261 42.7614C28.0398 43.0227 27.7424 43.3636 27.5341 43.7841C27.3258 44.2045 27.2216 44.6553 27.2216 45.1364V45.9091C27.2216 46.5682 27.3352 47.1269 27.5625 47.5852C27.7936 48.0398 28.1136 48.3864 28.5227 48.625C28.9318 48.8598 29.4072 48.9773 29.9489 48.9773C30.3011 48.9773 30.6193 48.928 30.9034 48.8295C31.1913 48.7273 31.4394 48.5758 31.6477 48.375C31.8561 48.1705 32.017 47.9167 32.1307 47.6136L33.4261 47.9773C33.2898 48.4167 33.0606 48.803 32.7386 49.1364C32.4167 49.4659 32.0189 49.7235 31.5455 49.9091C31.072 50.0909 30.5398 50.1818 29.9489 50.1818ZM36.3679 41.2727L38.4588 44.8409L40.5497 41.2727H42.0952L39.277 45.6364L42.0952 50H40.5497L38.4588 46.6136L36.3679 50H34.8224L37.5952 45.6364L34.8224 41.2727H36.3679ZM47.3082 50.1818C46.4673 50.1818 45.742 49.9962 45.1321 49.625C44.526 49.25 44.0582 48.7273 43.7287 48.0568C43.4029 47.3826 43.2401 46.5985 43.2401 45.7045C43.2401 44.8106 43.4029 44.0227 43.7287 43.3409C44.0582 42.6553 44.5166 42.1212 45.1037 41.7386C45.6946 41.3523 46.384 41.1591 47.1719 41.1591C47.6264 41.1591 48.0753 41.2348 48.5185 41.3864C48.9616 41.5379 49.3651 41.7841 49.7287 42.125C50.0923 42.4621 50.3821 42.9091 50.598 43.4659C50.8139 44.0227 50.9219 44.7083 50.9219 45.5227V46.0909H44.1946V44.9318H49.5582C49.5582 44.4394 49.4598 44 49.2628 43.6136C49.0696 43.2273 48.7931 42.9223 48.4332 42.6989C48.0772 42.4754 47.6567 42.3636 47.1719 42.3636C46.6378 42.3636 46.1757 42.4962 45.7855 42.7614C45.3991 43.0227 45.1018 43.3636 44.8935 43.7841C44.6851 44.2045 44.581 44.6553 44.581 45.1364V45.9091C44.581 46.5682 44.6946 47.1269 44.9219 47.5852C45.1529 48.0398 45.473 48.3864 45.8821 48.625C46.2912 48.8598 46.7666 48.9773 47.3082 48.9773C47.6605 48.9773 47.9787 48.928 48.2628 48.8295C48.5507 48.7273 48.7988 48.5758 49.0071 48.375C49.2154 48.1705 49.3764 47.9167 49.4901 47.6136L50.7855 47.9773C50.6491 48.4167 50.42 48.803 50.098 49.1364C49.776 49.4659 49.3783 49.7235 48.9048 49.9091C48.4313 50.0909 47.8991 50.1818 47.3082 50.1818ZM54.3026 38.3636V50H52.9616V38.3636H54.3026ZM62.9403 43.2273L61.7358 43.5682C61.66 43.3674 61.5483 43.1723 61.4006 42.983C61.2566 42.7898 61.0597 42.6307 60.8097 42.5057C60.5597 42.3807 60.2396 42.3182 59.8494 42.3182C59.3153 42.3182 58.8703 42.4413 58.5142 42.6875C58.1619 42.9299 57.9858 43.2386 57.9858 43.6136C57.9858 43.947 58.107 44.2102 58.3494 44.4034C58.5919 44.5966 58.9706 44.7576 59.4858 44.8864L60.7812 45.2045C61.5616 45.3939 62.143 45.6837 62.5256 46.0739C62.9081 46.4602 63.0994 46.9583 63.0994 47.5682C63.0994 48.0682 62.9555 48.5152 62.6676 48.9091C62.3835 49.303 61.9858 49.6136 61.4744 49.8409C60.9631 50.0682 60.3684 50.1818 59.6903 50.1818C58.8002 50.1818 58.0634 49.9886 57.4801 49.6023C56.8968 49.2159 56.5275 48.6515 56.3722 47.9091L57.6449 47.5909C57.7661 48.0606 57.9953 48.4129 58.3324 48.6477C58.6733 48.8826 59.1184 49 59.6676 49C60.2926 49 60.7888 48.8674 61.1562 48.6023C61.5275 48.3333 61.7131 48.0114 61.7131 47.6364C61.7131 47.3333 61.607 47.0795 61.3949 46.875C61.1828 46.6667 60.857 46.5114 60.4176 46.4091L58.9631 46.0682C58.1638 45.8788 57.5767 45.5852 57.2017 45.1875C56.8305 44.786 56.6449 44.2841 56.6449 43.6818C56.6449 43.1894 56.7831 42.7538 57.0597 42.375C57.34 41.9962 57.7206 41.6989 58.2017 41.483C58.6866 41.267 59.2358 41.1591 59.8494 41.1591C60.7131 41.1591 61.3911 41.3485 61.8835 41.7273C62.3797 42.1061 62.732 42.6061 62.9403 43.2273ZM66.0952 50.0909C65.8149 50.0909 65.5743 49.9905 65.3736 49.7898C65.1728 49.589 65.0724 49.3485 65.0724 49.0682C65.0724 48.7879 65.1728 48.5473 65.3736 48.3466C65.5743 48.1458 65.8149 48.0455 66.0952 48.0455C66.3755 48.0455 66.616 48.1458 66.8168 48.3466C67.0175 48.5473 67.1179 48.7879 67.1179 49.0682C67.1179 49.2538 67.0705 49.4242 66.9759 49.5795C66.8849 49.7348 66.7618 49.8598 66.6065 49.9545C66.455 50.0455 66.2846 50.0909 66.0952 50.0909ZM73.0696 50.1818C72.2514 50.1818 71.5469 49.9886 70.956 49.6023C70.3651 49.2159 69.9105 48.6837 69.5923 48.0057C69.2741 47.3277 69.1151 46.553 69.1151 45.6818C69.1151 44.7955 69.2779 44.0133 69.6037 43.3352C69.9332 42.6534 70.3916 42.1212 70.9787 41.7386C71.5696 41.3523 72.259 41.1591 73.0469 41.1591C73.6605 41.1591 74.2135 41.2727 74.706 41.5C75.1984 41.7273 75.6018 42.0455 75.9162 42.4545C76.2306 42.8636 76.4257 43.3409 76.5014 43.8864H75.1605C75.0582 43.4886 74.831 43.1364 74.4787 42.8295C74.1302 42.5189 73.6605 42.3636 73.0696 42.3636C72.5469 42.3636 72.0885 42.5 71.6946 42.7727C71.3045 43.0417 70.9995 43.4223 70.7798 43.9148C70.5639 44.4034 70.456 44.9773 70.456 45.6364C70.456 46.3106 70.562 46.8977 70.7741 47.3977C70.9901 47.8977 71.2931 48.286 71.6832 48.5625C72.0772 48.839 72.5393 48.9773 73.0696 48.9773C73.4181 48.9773 73.7344 48.9167 74.0185 48.7955C74.3026 48.6742 74.5431 48.5 74.7401 48.2727C74.937 48.0455 75.0772 47.7727 75.1605 47.4545H76.5014C76.4257 47.9697 76.2382 48.4337 75.9389 48.8466C75.6435 49.2557 75.2514 49.5814 74.7628 49.8239C74.2779 50.0625 73.7135 50.1818 73.0696 50.1818ZM82.0071 50.1818C81.2192 50.1818 80.5279 49.9943 79.9332 49.6193C79.3423 49.2443 78.8802 48.7197 78.5469 48.0455C78.2173 47.3712 78.0526 46.5833 78.0526 45.6818C78.0526 44.7727 78.2173 43.9792 78.5469 43.3011C78.8802 42.6231 79.3423 42.0966 79.9332 41.7216C80.5279 41.3466 81.2192 41.1591 82.0071 41.1591C82.795 41.1591 83.4844 41.3466 84.0753 41.7216C84.67 42.0966 85.1321 42.6231 85.4616 43.3011C85.795 43.9792 85.9616 44.7727 85.9616 45.6818C85.9616 46.5833 85.795 47.3712 85.4616 48.0455C85.1321 48.7197 84.67 49.2443 84.0753 49.6193C83.4844 49.9943 82.795 50.1818 82.0071 50.1818ZM82.0071 48.9773C82.6056 48.9773 83.098 48.8239 83.4844 48.517C83.8707 48.2102 84.1567 47.8068 84.3423 47.3068C84.5279 46.8068 84.6207 46.2652 84.6207 45.6818C84.6207 45.0985 84.5279 44.5549 84.3423 44.0511C84.1567 43.5473 83.8707 43.1402 83.4844 42.8295C83.098 42.5189 82.6056 42.3636 82.0071 42.3636C81.4086 42.3636 80.9162 42.5189 80.5298 42.8295C80.1435 43.1402 79.8575 43.5473 79.6719 44.0511C79.4863 44.5549 79.3935 45.0985 79.3935 45.6818C79.3935 46.2652 79.4863 46.8068 79.6719 47.3068C79.8575 47.8068 80.1435 48.2102 80.5298 48.517C80.9162 48.8239 81.4086 48.9773 82.0071 48.9773ZM88.0085 50V41.2727H89.304V42.6364H89.4176C89.5994 42.1705 89.893 41.8087 90.2983 41.5511C90.7036 41.2898 91.1903 41.1591 91.7585 41.1591C92.3343 41.1591 92.8134 41.2898 93.196 41.5511C93.5824 41.8087 93.8835 42.1705 94.0994 42.6364H94.1903C94.4138 42.1856 94.7491 41.8277 95.196 41.5625C95.643 41.2936 96.179 41.1591 96.804 41.1591C97.5843 41.1591 98.2225 41.4034 98.7188 41.892C99.215 42.3769 99.4631 43.1326 99.4631 44.1591V50H98.1222V44.1591C98.1222 43.5152 97.946 43.0549 97.5938 42.7784C97.2415 42.5019 96.8267 42.3636 96.3494 42.3636C95.7358 42.3636 95.2604 42.5492 94.9233 42.9205C94.5862 43.2879 94.4176 43.7538 94.4176 44.3182V50H93.054V44.0227C93.054 43.5265 92.893 43.1269 92.571 42.8239C92.2491 42.517 91.8343 42.3636 91.3267 42.3636C90.9782 42.3636 90.6525 42.4564 90.3494 42.642C90.0502 42.8277 89.8078 43.0852 89.6222 43.4148C89.4403 43.7405 89.3494 44.1174 89.3494 44.5455V50H88.0085Z" fill="white"/>
<path d="M27.63 22.7273V30H26.9659V22.7273H27.63ZM29.4322 30V24.5455H30.0465V25.3835H30.1033C30.2122 25.1018 30.3933 24.8804 30.6467 24.7195C30.9023 24.5561 31.2089 24.4744 31.5664 24.4744C31.9428 24.4744 32.2518 24.5632 32.4933 24.7408C32.7371 24.916 32.9194 25.1574 33.0401 25.4652H33.0863C33.2094 25.1622 33.4094 24.9219 33.6864 24.7443C33.9658 24.5644 34.3043 24.4744 34.7021 24.4744C35.2087 24.4744 35.6088 24.6342 35.9023 24.9538C36.1959 25.2711 36.3427 25.7351 36.3427 26.3459V30H35.7106V26.3459C35.7106 25.915 35.6005 25.5919 35.3803 25.3764C35.1602 25.161 34.8701 25.0533 34.5103 25.0533C34.0936 25.0533 33.7728 25.1811 33.5479 25.4368C33.323 25.6925 33.2106 26.0168 33.2106 26.4098V30H32.5643V26.2891C32.5643 25.9197 32.4613 25.6214 32.2553 25.3942C32.0494 25.1669 31.7594 25.0533 31.3853 25.0533C31.1344 25.0533 30.9083 25.1148 30.707 25.2379C30.5082 25.361 30.3507 25.5327 30.2347 25.7528C30.1211 25.9706 30.0643 26.2216 30.0643 26.5057V30H29.4322ZM39.5396 30.1243C39.2105 30.1243 38.9099 30.0604 38.6376 29.9325C38.3654 29.8023 38.1487 29.6153 37.9877 29.3714C37.8268 29.1252 37.7463 28.8269 37.7463 28.4766C37.7463 28.2067 37.7972 27.9794 37.899 27.7947C38.0008 27.6101 38.1452 27.4586 38.3322 27.3402C38.5192 27.2218 38.7406 27.1283 38.9963 27.0597C39.252 26.991 39.5337 26.9377 39.8414 26.8999C40.1468 26.862 40.4049 26.8288 40.6156 26.8004C40.8287 26.772 40.9908 26.727 41.1021 26.6655C41.2134 26.6039 41.269 26.5045 41.269 26.3672V26.2393C41.269 25.8677 41.1577 25.5753 40.9352 25.3622C40.715 25.1468 40.3978 25.0391 39.9835 25.0391C39.5905 25.0391 39.2697 25.1255 39.0211 25.2983C38.7749 25.4711 38.6021 25.6747 38.5027 25.9091L37.9025 25.6925C38.0256 25.3942 38.1961 25.1562 38.4139 24.9787C38.6317 24.7988 38.8755 24.6697 39.1454 24.5916C39.4153 24.5111 39.6887 24.4709 39.9657 24.4709C40.1741 24.4709 40.3907 24.4981 40.6156 24.5526C40.8429 24.607 41.0536 24.7017 41.2477 24.8366C41.4418 24.9692 41.5993 25.1551 41.72 25.3942C41.8407 25.6309 41.9011 25.9316 41.9011 26.2962V30H41.269V29.1371H41.2299C41.1542 29.2981 41.0417 29.4543 40.8926 29.6058C40.7434 29.7573 40.5564 29.8816 40.3315 29.9787C40.1066 30.0758 39.8426 30.1243 39.5396 30.1243ZM39.6248 29.5455C39.961 29.5455 40.2522 29.4709 40.4984 29.3217C40.7446 29.1726 40.934 28.9749 41.0666 28.7287C41.2015 28.4801 41.269 28.2067 41.269 27.9084V27.12C41.2217 27.165 41.1423 27.2053 41.0311 27.2408C40.9222 27.2763 40.7955 27.3082 40.6511 27.3366C40.5091 27.3627 40.367 27.3852 40.225 27.4041C40.0829 27.4231 39.9551 27.4396 39.8414 27.4538C39.5337 27.4917 39.2709 27.5509 39.0531 27.6314C38.8353 27.7119 38.6684 27.8232 38.5524 27.9652C38.4364 28.1049 38.3784 28.2848 38.3784 28.505C38.3784 28.8364 38.4967 29.0933 38.7335 29.2756C38.9702 29.4555 39.2673 29.5455 39.6248 29.5455ZM45.6635 32.1591C45.2918 32.1591 44.9663 32.1106 44.687 32.0135C44.4076 31.9188 44.1721 31.7886 43.9803 31.6229C43.7885 31.4571 43.6394 31.2713 43.5328 31.0653L44.0513 30.7244C44.1294 30.8617 44.2336 30.9967 44.3638 31.1293C44.4964 31.2618 44.668 31.3719 44.8787 31.4595C45.0918 31.5471 45.3534 31.5909 45.6635 31.5909C46.1465 31.5909 46.5359 31.4702 46.8319 31.2287C47.1301 30.9872 47.2793 30.612 47.2793 30.103V28.8743H47.2225C47.1491 29.04 47.0437 29.2057 46.9064 29.3714C46.7691 29.5348 46.5892 29.6709 46.3667 29.7798C46.1465 29.8887 45.873 29.9432 45.5463 29.9432C45.1107 29.9432 44.7237 29.8355 44.3851 29.62C44.0489 29.4046 43.7838 29.0968 43.5897 28.6967C43.3979 28.2943 43.302 27.8149 43.302 27.2585C43.302 26.7069 43.3955 26.2216 43.5826 25.8026C43.772 25.3835 44.0359 25.0568 44.3745 24.8224C44.713 24.5881 45.1072 24.4709 45.557 24.4709C45.8908 24.4709 46.1678 24.5301 46.388 24.6484C46.6081 24.7644 46.7845 24.9089 46.9171 25.0817C47.052 25.2545 47.1574 25.4226 47.2331 25.5859H47.2971V24.5455H47.915V30.142C47.915 30.6037 47.8167 30.9837 47.6202 31.282C47.4237 31.5803 47.1562 31.8004 46.8176 31.9425C46.4791 32.0869 46.0944 32.1591 45.6635 32.1591ZM45.6209 29.3643C45.9713 29.3643 46.2708 29.2803 46.5194 29.1122C46.7679 28.9418 46.9585 28.6979 47.0911 28.3807C47.2237 28.0634 47.29 27.6858 47.29 27.2479C47.29 26.8217 47.2248 26.4441 47.0946 26.1151C46.9644 25.7836 46.775 25.5232 46.5265 25.3338C46.2802 25.142 45.9784 25.0462 45.6209 25.0462C45.2563 25.0462 44.9486 25.1444 44.6976 25.3409C44.4467 25.5374 44.2573 25.8026 44.1294 26.1364C44.0016 26.4678 43.9377 26.8383 43.9377 27.2479C43.9377 27.6645 44.0028 28.0327 44.133 28.3523C44.2632 28.6695 44.4538 28.9181 44.7047 29.098C44.9557 29.2756 45.2611 29.3643 45.6209 29.3643ZM51.7937 30.1136C51.2847 30.1136 50.8443 29.9953 50.4727 29.7585C50.101 29.5194 49.8133 29.1892 49.6097 28.7678C49.4085 28.344 49.3079 27.8563 49.3079 27.3047C49.3079 26.7554 49.4085 26.2678 49.6097 25.8416C49.8133 25.4131 50.0939 25.0781 50.4513 24.8366C50.8112 24.5928 51.2267 24.4709 51.6978 24.4709C51.9937 24.4709 52.279 24.5253 52.5536 24.6342C52.8282 24.7408 53.0745 24.9053 53.2923 25.1278C53.5124 25.348 53.6864 25.6262 53.8143 25.9624C53.9421 26.2962 54.006 26.6915 54.006 27.1484V27.4609H49.7447V26.9034H53.3597C53.3597 26.553 53.2887 26.2382 53.1467 25.9588C53.007 25.6771 52.8117 25.4545 52.5607 25.2912C52.3121 25.1278 52.0245 25.0462 51.6978 25.0462C51.3522 25.0462 51.0479 25.1385 50.7852 25.3232C50.5224 25.5078 50.3164 25.7517 50.1673 26.0547C50.0205 26.3577 49.9459 26.6892 49.9435 27.049V27.3828C49.9435 27.8161 50.0181 28.1948 50.1673 28.5192C50.3188 28.8411 50.533 29.0909 50.81 29.2685C51.087 29.446 51.4149 29.5348 51.7937 29.5348C52.0517 29.5348 52.2778 29.4946 52.4719 29.4141C52.6684 29.3336 52.833 29.2259 52.9656 29.0909C53.1005 28.9536 53.2023 28.8033 53.271 28.6399L53.8711 28.8352C53.7882 29.0649 53.6521 29.2768 53.4627 29.4709C53.2757 29.665 53.0413 29.8213 52.7596 29.9396C52.4802 30.0556 52.1583 30.1136 51.7937 30.1136ZM60.4558 24.5455V25.0959H57.7747V24.5455H60.4558ZM58.6127 30V23.7464C58.6127 23.4529 58.6802 23.2055 58.8152 23.0043C58.9525 22.803 59.1312 22.6503 59.3514 22.5462C59.5716 22.442 59.8047 22.3899 60.051 22.3899C60.2167 22.3899 60.354 22.4041 60.4629 22.4325C60.5742 22.4586 60.6618 22.4846 60.7257 22.5107L60.541 23.0646C60.4937 23.0504 60.4357 23.0339 60.367 23.0149C60.2984 22.996 60.2119 22.9865 60.1078 22.9865C59.8332 22.9865 59.6213 23.0634 59.4721 23.2173C59.323 23.3712 59.2484 23.5914 59.2484 23.8778L59.2449 30H58.6127ZM61.7173 30V24.5455H62.3317V25.3835H62.3778C62.4867 25.1089 62.6761 24.8875 62.946 24.7195C63.2183 24.549 63.526 24.4638 63.8693 24.4638C63.9214 24.4638 63.9794 24.465 64.0433 24.4673C64.1072 24.4697 64.1605 24.4721 64.2031 24.4744V25.1172C64.1747 25.1125 64.125 25.1054 64.054 25.0959C63.983 25.0864 63.906 25.0817 63.8232 25.0817C63.5391 25.0817 63.2857 25.142 63.0632 25.2628C62.843 25.3812 62.669 25.5457 62.5412 25.7564C62.4134 25.9671 62.3494 26.2074 62.3494 26.4773V30H61.7173ZM67.2358 30.1136C66.7647 30.1136 66.348 29.9941 65.9858 29.755C65.6259 29.5159 65.3442 29.1856 65.1406 28.7642C64.937 28.3404 64.8352 27.8516 64.8352 27.2976C64.8352 26.7389 64.937 26.2476 65.1406 25.8239C65.3442 25.3977 65.6259 25.0663 65.9858 24.8295C66.348 24.5904 66.7647 24.4709 67.2358 24.4709C67.7069 24.4709 68.1224 24.5904 68.4822 24.8295C68.8421 25.0687 69.1238 25.4001 69.3274 25.8239C69.5334 26.2476 69.6364 26.7389 69.6364 27.2976C69.6364 27.8516 69.5346 28.3404 69.331 28.7642C69.1274 29.1856 68.8445 29.5159 68.4822 29.755C68.1224 29.9941 67.7069 30.1136 67.2358 30.1136ZM67.2358 29.5348C67.6146 29.5348 67.9354 29.433 68.1982 29.2294C68.4609 29.0258 68.6598 28.7547 68.7947 28.4162C68.9321 28.0777 69.0007 27.7048 69.0007 27.2976C69.0007 26.8904 68.9321 26.5163 68.7947 26.1754C68.6598 25.8345 68.4609 25.5611 68.1982 25.3551C67.9354 25.1491 67.6146 25.0462 67.2358 25.0462C66.8594 25.0462 66.5386 25.1491 66.2734 25.3551C66.0107 25.5611 65.8106 25.8345 65.6733 26.1754C65.5384 26.5163 65.4709 26.8904 65.4709 27.2976C65.4709 27.7048 65.5384 28.0777 65.6733 28.4162C65.8106 28.7547 66.0107 29.0258 66.2734 29.2294C66.5362 29.433 66.857 29.5348 67.2358 29.5348ZM71.024 30V24.5455H71.6383V25.3835H71.6951C71.804 25.1018 71.9851 24.8804 72.2385 24.7195C72.4941 24.5561 72.8007 24.4744 73.1582 24.4744C73.5346 24.4744 73.8436 24.5632 74.085 24.7408C74.3289 24.916 74.5112 25.1574 74.6319 25.4652H74.6781C74.8012 25.1622 75.0012 24.9219 75.2782 24.7443C75.5576 24.5644 75.8961 24.4744 76.2939 24.4744C76.8005 24.4744 77.2006 24.6342 77.4941 24.9538C77.7877 25.2711 77.9345 25.7351 77.9345 26.3459V30H77.3024V26.3459C77.3024 25.915 77.1923 25.5919 76.9721 25.3764C76.752 25.161 76.4619 25.0533 76.1021 25.0533C75.6854 25.0533 75.3646 25.1811 75.1397 25.4368C74.9148 25.6925 74.8024 26.0168 74.8024 26.4098V30H74.1561V26.2891C74.1561 25.9197 74.0531 25.6214 73.8471 25.3942C73.6412 25.1669 73.3511 25.0533 72.9771 25.0533C72.7261 25.0533 72.5001 25.1148 72.2988 25.2379C72.1 25.361 71.9425 25.5327 71.8265 25.7528C71.7129 25.9706 71.6561 26.2216 71.6561 26.5057V30H71.024Z" fill="white"/>
</svg>
